<svg xmlns="http://www.w3.org/2000/svg" width="24" height="24"><g fill="none" fill-rule="evenodd"><path d="M0 0h24v24H0z"/><g transform="translate(3 3)"><path fill="#BBBABA" fill-rule="nonzero" d="M17.685.907h-7.507a.115.115 0 00-.113.113v3.93c0 .06.053.112.113.112h1.424c.046 0 .09.03.105.075l.39 1.2a.106.106 0 00.173.053l1.77-1.305a.121.121 0 01.068-.022h3.584c.06 0 .113-.053.113-.113V1.02a.122.122 0 00-.12-.113z"/><g fill-rule="nonzero" transform="translate(0 4.5)"><path fill="#BBBABA" d="M12.21 9.787c-.563-.337-1.215-.555-1.905-.667-1.455-.24-2.955-.06-4.417.008-.578.03-1.163.044-1.733.18-1.68.397-2.857 2.137-2.955 3.802a.171.171 0 00.173.18c1.237.03 2.474.038 3.72.045 1.665.015 3.337.015 5.002.015.705 0 1.417 0 2.122-.008.368 0 .736-.014 1.103-.007.885.022.9-.173.84-.405-.158-.592-.3-1.057-.57-1.605a3.468 3.468 0 00-1.38-1.537z"/><path fill="#FFF" stroke="#4B4A4A" stroke-linecap="round" stroke-width=".65" d="M11.325 9.015A5.115 5.115 0 009.548 8.4c-1.328-.218-2.686-.068-4.02-.053-1.11.016-2.243 0-3.21.623C1.124 9.742.382 10.957.3 12.367a.171.171 0 00.172.18h11.7c.316 0 .653.038.968 0 .225-.03.232.008.172-.285a8.274 8.274 0 00-.397-1.335c-.322-.81-.832-1.477-1.59-1.912z"/><circle cx="7.013" cy="4.388" r="4.29" fill="#FFF" stroke="#4B4A4A" stroke-linecap="round" stroke-width=".65"/></g><path stroke="#4B4A4A" stroke-linecap="round" stroke-width=".55" d="M4.275 12.93c.637.488 2.67 2.018 2.872 1.973.106-.023 2.415-1.846 2.513-1.973"/><path d="M14.018 4.395h3.584c.06 0 .113-.052.113-.112V.352a.115.115 0 00-.112-.113h-7.508a.115.115 0 00-.113.112v3.93c0 .06.053.113.113.113h1.425c.045 0 .09.03.105.075l.39 1.2a.106.106 0 00.173.053l1.77-1.305a.085.085 0 01.06-.023zm-2.273-2.707h4.305m-4.305 1.41h4.305" fill="#FFF" fill-rule="nonzero" stroke="#4B4A4A" stroke-linecap="round" stroke-width=".55"/><path stroke="#4B4A4A" stroke-linecap="round" stroke-width=".55" d="M7.103 15.037v1.861"/><path stroke="#4B4A4A" stroke-linecap="round" stroke-width=".65" d="M2.888 15.938a.913.913 0 01.367-.983.926.926 0 011.05.03c.3.225.435.645.323 1.005m-.811-1.2a2.55 2.55 0 01.293-1.575"/><circle cx="9.825" cy="14.707" r="1" fill="#FFF" fill-rule="nonzero" stroke="#275EE4" stroke-linecap="round" stroke-width=".55"/><circle cx="9.893" cy="14.707" r="1" fill="#FFF" fill-rule="nonzero" stroke="#4B4A4A" stroke-linecap="round" stroke-width=".65"/><path fill="#FFF" fill-rule="nonzero" stroke="#4B4A4A" stroke-linecap="round" stroke-width=".65" d="M9.098 12.832c.374.263.644.668.772 1.103"/></g></g></svg>