<?xml version="1.0" encoding="UTF-8"?>
<svg width="24px" height="24px" viewBox="0 0 24 24" version="1.1" xmlns="http://www.w3.org/2000/svg" xmlns:xlink="http://www.w3.org/1999/xlink">
    <title>Group 25</title>
    <g id="Dashboard" stroke="none" stroke-width="1" fill="none" fill-rule="evenodd">
        <g id="02_Analytics-entry-point_3C" transform="translate(-713.000000, -23.000000)">
            <g id="Group-25" transform="translate(713.000000, 23.000000)">
                <rect id="Rectangle" x="0" y="0" width="24" height="24"></rect>
                <g id="Group-19" transform="translate(1.000000, 1.000000)">
                    <g id="Group-5" transform="translate(-0.000000, -0.000000)">
                        <circle id="Oval" fill="#005DAC" fill-rule="nonzero" cx="11" cy="11" r="11"></circle>
                        <g id="Clinic-reports-icon" transform="translate(3.300000, 3.300000)">
                            <g id="Group-66">
                                <rect id="Rectangle" x="0" y="0" width="15.4" height="15.4"></rect>
                            </g>
                            <g id="chart" transform="translate(1.283333, 1.283333)" fill="#FFFFFF" fill-rule="nonzero">
                                <g id="Group">
                                    <path d="M12.1696819,12.3864878 L12.1696819,4.48905198 C12.1696819,4.37117741 12.0741122,4.27560776 11.9562377,4.27560776 L9.82179557,4.27560776 C9.70392102,4.27560776 9.60835138,4.37117741 9.60835138,4.48905198 L9.60835138,12.3864878 L9.18146293,12.3864878 L9.18146293,7.47727096 C9.18146293,7.35939641 9.08589329,7.26382676 8.96801874,7.26382676 L6.83357656,7.26382676 C6.71570201,7.26382676 6.62013236,7.35939641 6.62013236,7.47727096 L6.62013236,12.3864878 L6.19324393,12.3864878 L6.19324393,5.34282883 C6.19324393,5.22495426 6.09767429,5.12938462 5.97979973,5.12938462 L3.84535759,5.12938462 C3.72748302,5.12938462 3.63191338,5.22495426 3.63191338,5.34282883 L3.63191338,12.3864878 L3.20502494,12.3864878 L3.20502494,8.33104778 C3.20502494,8.21317324 3.1094553,8.11760359 2.99158073,8.11760359 L0.857138603,8.11760359 C0.739264032,8.11760359 0.643694384,8.21317324 0.643694384,8.33104778 L0.643694384,12.3864878 L0.00336174636,12.3864878 L0.00336174636,12.8133763 L12.8100145,12.8133763 L12.8100145,12.3864878 L12.1696819,12.3864878 Z M2.77813652,12.3864878 L1.07058281,12.3864878 L1.07058281,8.54449205 L2.77813652,8.54449205 L2.77813652,12.3864878 Z M5.76635551,12.3864878 L4.05880181,12.3864878 L4.05880181,5.55627305 L5.76635551,5.55627305 L5.76635551,12.3864878 Z M8.75457449,12.3864878 L7.04702082,12.3864878 L7.04702082,7.69071515 L8.75457449,7.69071515 L8.75457449,12.3864878 Z M11.7427935,12.3864878 L10.0352398,12.3864878 L10.0352398,4.70249618 L11.7427935,4.70249618 L11.7427935,12.3864878 Z" id="Shape"></path>
                                    <path d="M1.33576057,5.80621621 C1.51035793,5.92163617 1.71505093,5.98316148 1.92435967,5.98316148 C2.51375918,5.98316148 2.99155405,5.50531324 2.99152738,4.91588704 C2.99152738,4.70665835 2.93000208,4.50201871 2.81463548,4.3274747 L4.32539363,2.81650312 C4.49855024,2.93237664 4.70209598,2.99446223 4.91044421,2.99494248 C4.97327686,2.99496917 5.03597609,2.98947298 5.09784823,2.97850728 C5.30091372,2.94291546 5.48917152,2.84883991 5.63956964,2.70786001 L6.90593417,3.68137907 C6.69457103,4.23158489 6.96924703,4.84897228 7.5194529,5.06033542 C8.06965871,5.27169854 8.68704606,4.99702253 8.8984092,4.4468167 C9.02236694,4.12414241 8.98237283,3.76142065 8.79107345,3.47348441 L10.3014047,1.96315315 C10.7943808,2.289456 11.4585391,2.15431913 11.7848153,1.66134304 C12.1111182,1.16836694 11.9759813,0.504208594 11.4830052,0.177932432 C10.9900291,-0.148370408 10.3258707,-0.0132335412 9.9995946,0.479742551 C9.76251142,0.837928624 9.76251142,1.30315697 9.9995946,1.66134304 L8.48926334,3.17167429 C8.06624357,2.89206238 7.50488533,2.94870514 7.14627234,3.30721136 C7.14221694,3.3112668 7.13986902,3.31596258 7.13602704,3.31980457 L5.88801871,2.36058628 C6.12774324,1.82211989 5.8855641,1.19128552 5.34709771,0.951560982 C4.80863132,0.711836453 4.17779695,0.954015594 3.93807242,1.49248199 C3.78980874,1.82553499 3.82179869,2.21125537 4.02294318,2.51530666 L2.51282537,4.0256379 C2.02112994,3.70058905 1.35905267,3.83569924 1.03400381,4.32739466 C0.708981632,4.81909009 0.844065145,5.48116736 1.33576057,5.80621621 Z M10.8890166,0.433611919 C11.242667,0.433611919 11.5293492,0.720294178 11.5293492,1.07394456 C11.5293492,1.42759494 11.242667,1.7142772 10.8890166,1.7142772 C10.5353663,1.7142772 10.248684,1.42759494 10.248684,1.07394456 C10.248684,0.720294178 10.5353663,0.433611919 10.8890166,0.433611919 Z M7.44778901,3.60952842 C7.5679047,3.48933264 7.73086937,3.42180422 7.90079765,3.42183088 C8.25444799,3.42177755 8.54115698,3.70843313 8.54121032,4.06208351 C8.541237,4.23201179 8.47370857,4.39497644 8.35351279,4.51509217 C8.10004778,4.75668433 7.70154744,4.75668433 7.44808243,4.51509217 C7.19792586,4.26509563 7.19781916,3.85965835 7.44778901,3.60952842 Z M4.38809286,1.56046397 C4.38811955,1.56043728 4.38811955,1.5604106 4.38814622,1.56038392 C4.48520998,1.42095149 4.6339806,1.32610222 4.80137422,1.29699377 C4.8385402,1.29061711 4.87615974,1.28741545 4.91385932,1.28738878 C5.04488738,1.28752218 5.17268711,1.32799654 5.27991614,1.40328899 C5.56958663,1.60616771 5.63996986,2.00544179 5.43709112,2.29511227 C5.2342124,2.58478274 4.83493832,2.6551393 4.54526784,2.45228725 C4.25559737,2.24940853 4.18521414,1.85013444 4.38809286,1.56046397 Z M1.47135101,4.46330527 C1.47145772,4.46319854 1.47153776,4.4631185 1.47164449,4.46301179 C1.72180111,4.21298857 2.12726508,4.21306861 2.37728828,4.46322523 C2.6273115,4.71338185 2.62723146,5.11884581 2.37707484,5.36886902 C2.12360984,5.61046118 1.7251095,5.61046118 1.47164449,5.36886902 C1.22148787,5.11887248 1.22138114,4.7134352 1.47135101,4.46330527 Z" id="Shape"></path>
                                </g>
                            </g>
                        </g>
                    </g>
                </g>
            </g>
        </g>
    </g>
</svg>