<svg width="24" height="24" xmlns="http://www.w3.org/2000/svg"><g fill="none" fill-rule="evenodd"><path d="M15.954 4.692c1.371 0 2.491 1.12 2.491 2.49V17.7a2.742 2.742 0 01-2.668 2.744c-.232.007-.441.012-.62.014l-.439.003-.185-.006a.951.951 0 01-.141-.017H7.627a2.702 2.702 0 01-2.703-2.704V7.395a2.702 2.702 0 012.703-2.703zm0 1H7.627c-.941 0-1.703.761-1.703 1.703v10.338c0 .942.762 1.703 1.703 1.703h8.056l-.009.009.075-.002a1.742 1.742 0 001.69-1.596l.006-.148V7.183c0-.819-.672-1.491-1.49-1.491zm-.376 10.72a.5.5 0 01.09.992l-.09.008H9.913a.5.5 0 01-.09-.992l.09-.008h5.665zm-7.437.151a.349.349 0 110 .698.349.349 0 010-.698zm7.437-2.977a.5.5 0 01.09.992l-.09.008H9.913a.5.5 0 01-.09-.992l.09-.008h5.665zm-7.437.151a.349.349 0 110 .698.349.349 0 010-.698zm7.437-2.97a.5.5 0 01.09.992l-.09.008H9.913a.5.5 0 01-.09-.992l.09-.008h5.665zm-7.437.151a.349.349 0 110 .698.349.349 0 010-.698zm7.437-3.08a.5.5 0 01.09.993l-.09.008H9.913a.5.5 0 01-.09-.992l.09-.008h5.665zM8.14 7.99a.349.349 0 110 .698.349.349 0 010-.698z" fill="#FFF" fill-rule="nonzero"/></g></svg>