<svg xmlns="http://www.w3.org/2000/svg" width="19" height="23"><g fill="none" fill-rule="evenodd"><path d="M-3-1h23.344v24H-3z"/><path fill="#4A4A4A" fill-rule="nonzero" stroke="#4A4A4A" stroke-width=".3" d="M.275 18.034l1.562-2.519a7.305 7.305 0 001.101-3.849V9.46c0-3.396 2.857-6.16 6.366-6.16 3.51 0 6.366 2.764 6.366 6.16v2.206c0 1.356.381 2.687 1.101 3.85l1.563 2.518a.428.428 0 01.006.442.457.457 0 01-.396.224H.664a.458.458 0 01-.396-.224.426.426 0 01.007-.442zm16.866-.214l-1.149-1.852a8.156 8.156 0 01-1.231-4.302V9.46c0-2.912-2.448-5.28-5.457-5.28S3.848 6.548 3.848 9.46v2.206a8.17 8.17 0 01-1.23 4.302l-1.15 1.852H17.14z"/><path fill="#4A4A4A" fill-rule="nonzero" d="M9.304 0c.885 0 1.605.877 1.605 1.956V3.91c0 .27-.18.489-.401.489-.222 0-.401-.219-.401-.489V1.956c0-.54-.36-.978-.803-.978-.443 0-.802.438-.802.978V3.91c0 .27-.18.489-.401.489-.222 0-.402-.219-.402-.489V1.956C7.7.877 8.42 0 9.304 0z"/><path fill="#4A4A4A" fill-rule="nonzero" stroke="#4A4A4A" stroke-width=".2" d="M7.989 18.903a.44.44 0 01.586-.147.404.404 0 01.153.565c-.111.182-.172.4-.172.616 0 .683.576 1.238 1.283 1.238.708 0 1.284-.555 1.284-1.238a1.2 1.2 0 00-.172-.616.405.405 0 01.153-.565.439.439 0 01.586.147c.189.312.29.67.29 1.034 0 1.138-.96 2.063-2.14 2.063-1.18 0-2.139-.925-2.14-2.063 0-.365.1-.722.289-1.034z"/></g></svg>