<svg xmlns="http://www.w3.org/2000/svg" width="24" height="24"><g fill="none" fill-rule="evenodd"><path d="M0 0h24v24H0z"/><path fill="#BBBABA" fill-rule="nonzero" d="M19.464 4.838H5.4a.677.677 0 00-.675.674V18.99c0 .37.304.674.675.674h14.063c.37 0 .674-.304.674-.674V5.504a.675.675 0 00-.674-.666z"/><path fill="#FFF" fill-rule="nonzero" stroke="#4B4A4A" stroke-linecap="round" stroke-width=".75" d="M18.486 18.797H4.423a.678.678 0 01-.675-.674V4.653c0-.371.304-.675.675-.675h14.063c.37 0 .674.304.674.674V18.13a.675.675 0 01-.674.667zM3.719 6.853h15.396M6.564 3.23v2.067m4.898-2.067v2.067m4.801-2.067v2.067"/><path fill="#BBBABA" fill-rule="nonzero" d="M7.468 11.713H6.045a.679.679 0 01-.681-.681V9.609a.674.674 0 01.681-.681h1.423a.68.68 0 01.682.681v1.423a.68.68 0 01-.682.681zm4.742 0h-1.423a.679.679 0 01-.681-.681V9.609a.674.674 0 01.681-.681h1.423a.68.68 0 01.682.681v1.423a.68.68 0 01-.682.681zm4.742 0h-1.423a.679.679 0 01-.681-.681V9.609a.674.674 0 01.681-.681h1.423a.68.68 0 01.682.681v1.423a.68.68 0 01-.682.681zm-9.484 5.009H6.045a.68.68 0 01-.681-.681v-1.423a.68.68 0 01.681-.682h1.423a.68.68 0 01.682.682v1.423a.68.68 0 01-.682.681zm4.742 0h-1.423a.68.68 0 01-.681-.681v-1.423a.68.68 0 01.681-.682h1.423a.68.68 0 01.682.682v1.423a.68.68 0 01-.682.681zm4.742 0h-1.423a.68.68 0 01-.681-.681v-1.423a.68.68 0 01.681-.682h1.423a.68.68 0 01.682.682v1.423a.68.68 0 01-.682.681z"/><path stroke="#4B4A4A" stroke-linecap="round" stroke-width=".75" d="M7.468 11.713H6.045a.679.679 0 01-.681-.681V9.609a.674.674 0 01.681-.681h1.423a.68.68 0 01.682.681v1.423a.68.68 0 01-.682.681zm4.742 0h-1.423a.679.679 0 01-.681-.681V9.609a.674.674 0 01.681-.681h1.423a.68.68 0 01.682.681v1.423a.68.68 0 01-.682.681zm4.742 0h-1.423a.679.679 0 01-.681-.681V9.609a.674.674 0 01.681-.681h1.423a.68.68 0 01.682.681v1.423a.68.68 0 01-.682.681zm-9.484 5.009H6.045a.68.68 0 01-.681-.681v-1.423a.68.68 0 01.681-.682h1.423a.68.68 0 01.682.682v1.423a.68.68 0 01-.682.681zm4.742 0h-1.423a.68.68 0 01-.681-.681v-1.423a.68.68 0 01.681-.682h1.423a.68.68 0 01.682.682v1.423a.68.68 0 01-.682.681zm4.742 0h-1.423a.68.68 0 01-.681-.681v-1.423a.68.68 0 01.681-.682h1.423a.68.68 0 01.682.682v1.423a.68.68 0 01-.682.681z"/></g></svg>