<svg xmlns="http://www.w3.org/2000/svg" width="24" height="24"><g fill="none" fill-rule="evenodd"><path d="M0 0h24v24H0z"/><g fill-rule="nonzero"><path fill="#BBBABA" d="M18.473 19.862H6.443a1.416 1.416 0 01-1.418-1.418V6.545c0-.785.633-1.418 1.419-1.418h12.029c.785 0 1.418.633 1.418 1.418v11.899c0 .785-.633 1.418-1.418 1.418z"/><path fill="#FFF" stroke="#4B4A4A" stroke-linecap="round" stroke-width=".75" d="M17.636 19.025H5.6a1.415 1.415 0 01-1.418-1.418V5.71c0-.786.633-1.419 1.418-1.419h12.03c.785 0 1.417.633 1.417 1.418v11.898c0 .786-.632 1.418-1.41 1.418z"/><path fill="#BBBABA" d="M4.385 6.982l.015-1.15c0-.755.582-1.315 1.338-1.315l11.732-.03c.756 0 1.331.524 1.331 1.28l.007 1.251c-.03-.174-14.19-.007-14.423-.036z"/><path fill="#FFF" stroke="#4B4A4A" stroke-linecap="round" stroke-width=".75" d="M4.4 7.018h14.465"/><g fill="#FFF" stroke="#4B4A4A" stroke-linecap="round" stroke-width=".75"><path d="M17.251 17.396H6.022a.494.494 0 01-.494-.494v-6.277c0-.269.217-.494.494-.494h11.237c.269 0 .494.218.494.494v6.277a.5.5 0 01-.502.494zM9.498 10.196v6.989m4.364-6.923v6.923M17.659 13.76H5.651"/></g><path fill="#FFF" stroke="#4B4A4A" stroke-linecap="round" stroke-width=".75" d="M10.618 15.542l.495.523 1.309-1.2m-5.884-2.567l.487.524 1.317-1.2"/></g></g></svg>