<svg xmlns="http://www.w3.org/2000/svg" width="24" height="24"><g fill="none" fill-rule="evenodd"><path d="M0 0h24v24H0z"/><g fill-rule="nonzero" transform="translate(4 3)"><path fill="#BBBABA" d="M14.182 16.756H2.792a1.316 1.316 0 01-1.316-1.316V1.942c0-.727.59-1.317 1.317-1.317h11.389c.727 0 1.316.59 1.316 1.317V15.44c0 .727-.589 1.316-1.316 1.316z"/><path fill="#FFF" stroke="#4B4A4A" stroke-width=".75" d="M13.36 15.76H1.535a1.102 1.102 0 01-1.099-1.098V1.927C.436 1.324.931.83 1.535.83H13.36c.604 0 1.098.495 1.098 1.098v12.735c0 .603-.494 1.098-1.098 1.098z"/><path fill="#FFF" stroke="#4B4A4A" stroke-linecap="round" stroke-width=".769" d="M11.687 6.909H5.84m5.847-2.967H5.84m5.847 5.927H5.84m5.847 2.96H5.84M2.69 3.913l.634.363c.05.037.123.037.167-.007l1.207-1.164M2.69 6.88l.634.364c.05.036.123.029.167-.015l1.207-1.164"/><circle cx="3.556" cy="9.869" r="1" fill="#4B4A4A"/><circle cx="3.556" cy="12.829" r="1" fill="#4B4A4A"/></g></g></svg>