<svg xmlns="http://www.w3.org/2000/svg" width="24" height="24"><g fill="none" fill-rule="evenodd"><path d="M0 0h24v24H0z"/><g fill-rule="nonzero" transform="translate(4 3)"><path fill="#ABC1F3" d="M14.551 17.193H2.865a1.35 1.35 0 01-1.35-1.35V1.992A1.35 1.35 0 012.865.641h11.686c.746 0 1.35.604 1.35 1.35v13.85a1.35 1.35 0 01-1.35 1.35z"/><path fill="#FFF" stroke="#275EE4" stroke-width=".828" d="M13.708 16.17H1.575a1.13 1.13 0 01-1.127-1.126V1.977A1.13 1.13 0 011.575.851h12.133c.62 0 1.127.507 1.127 1.126v13.067a1.13 1.13 0 01-1.127 1.126z"/><path fill="#FFF" stroke="#275EE4" stroke-linecap="round" stroke-width=".828" d="M11.992 7.089h-6m6-3.045h-6m6 6.082h-6m6 3.037h-6M2.761 4.015l.65.373c.051.037.126.037.17-.008l1.24-1.194M2.761 7.06l.65.372c.051.038.126.03.17-.015l1.24-1.194"/><circle cx="3.649" cy="10.126" r="1" fill="#275EE4"/><circle cx="3.649" cy="13.163" r="1" fill="#275EE4"/></g></g></svg>