<svg version="1.1" id="Layer_1" xmlns="http://www.w3.org/2000/svg" x="0" y="0" viewBox="0 0 24 24" width="56" height="56" xml:space="preserve"><style>.st26{fill:#f2d395}.st30{fill:#fbe1a5}.st31{fill:#6b5b63}</style><path d="M19.7 22.1H4.9c0-3.1 2.3-5.7 5.4-6.4.2 0 1-.1 1.8-.1h2.1c3 .6 5.5 3.3 5.5 6.5z" fill="#729df2"/><path d="M12.8 15.6h-.7c-.8 0-1.6.1-1.8.1-3.1.7-5.4 3.3-5.4 6.4h2.8c-.4-3 1.3-6.3 5.1-6.5z" opacity=".4" fill="#5484d1"/><circle class="st30" cx="12.1" cy="9" r="7.1"/><circle class="st30" cx="19" cy="10.1" r="1.2"/><circle class="st30" cx="5" cy="10.1" r="1.2"/><path class="st26" d="M10.6 2.7c.5-.3 1.1-.6 1.7-.8h-.2C8.2 1.9 5 5.1 5 9c0 3 1.8 5.5 4.4 6.6C5.3 12.5 5.7 5 10.6 2.7z"/><circle class="st26" cx="5" cy="10.1" r="1.2"/><g><path class="st31" d="M14.6 10.4h-.2c-.2 0-.3-.1-.3-.3v-.6c0-.2.1-.3.3-.3h.2c.2 0 .3.1.3.3v.6c0 .1-.1.3-.3.3zM9.7 10.4h-.2c-.2 0-.3-.1-.3-.3v-.6c0-.2.1-.3.3-.3h.2c.2 0 .3.1.3.3v.6c0 .2-.1.3-.3.3z"/><path d="M11 12s.9.9 2.1 0" fill="none" stroke="#eac587" stroke-width=".607" stroke-linecap="round" stroke-miterlimit="10"/></g><path d="M11.2 2c.6-.1 1.1-.2 1.7 0 .5.1 1 .5 1.3 1 1 2-2.1 3-3.5 2.1-.4-.3-.8-.9-.6-1.4.3-.6 1.7-.8 1.8 0 0 .3-.2.5-.4.4" fill="none" stroke="#ae8162" stroke-width=".607" stroke-linecap="round" stroke-miterlimit="10"/></svg>