<svg xmlns="http://www.w3.org/2000/svg" xmlns:xlink="http://www.w3.org/1999/xlink" width="58" height="58"><defs><filter id="a" width="128%" height="128%" x="-14%" y="-10%" filterUnits="objectBoundingBox"><feOffset dy="2" in="SourceAlpha" result="shadowOffsetOuter1"/><feGaussianBlur in="shadowOffsetOuter1" result="shadowBlurOuter1" stdDeviation="2"/><feColorMatrix in="shadowBlurOuter1" values="0 0 0 0 0 0 0 0 0 0 0 0 0 0 0 0 0 0 0.5 0"/></filter><circle id="b" cx="25" cy="25" r="25"/></defs><g fill="none" fill-rule="evenodd"><g transform="translate(4 2)"><use fill="#000" filter="url(#a)" xlink:href="#b"/><use fill="#005DAC" xlink:href="#b"/></g><g fill="#FFF" fill-rule="nonzero"><path d="M31.877 16.17a.533.533 0 00-.383-.17h-8.582a2.903 2.903 0 00-2.89 2.885v16.23C20.021 36.697 21.328 38 22.911 38H34.56a2.903 2.903 0 002.89-2.886V22.228a.568.568 0 00-.154-.372l-5.419-5.686zm.154 1.706l3.63 3.81H33.3c-.701 0-1.27-.563-1.27-1.265v-2.545zm2.53 19.061H22.912a1.84 1.84 0 01-1.828-1.823V18.885c0-.993.83-1.822 1.828-1.822h8.056v3.357a2.326 2.326 0 002.333 2.328h3.088v12.365c0 1-.83 1.823-1.828 1.823z"/><path d="M33.11 33.27h-8.747a.533.533 0 000 1.063h8.752a.533.533 0 00.532-.531.535.535 0 00-.537-.531zm-7.094-5.717l2.189-2.354V31c0 .293.24.532.531.532.293 0 .532-.24.532-.532v-5.8l2.19 2.354a.526.526 0 00.748.026.528.528 0 00.027-.749l-3.113-3.344a.536.536 0 00-.388-.17.536.536 0 00-.388.17L25.23 26.83a.53.53 0 00.027.75.544.544 0 00.76-.027z"/></g></g></svg>