<svg xmlns="http://www.w3.org/2000/svg" xmlns:xlink="http://www.w3.org/1999/xlink" width="58" height="58"><defs><filter id="a" width="128%" height="128%" x="-14%" y="-10%" filterUnits="objectBoundingBox"><feOffset dy="2" in="SourceAlpha" result="shadowOffsetOuter1"/><feGaussianBlur in="shadowOffsetOuter1" result="shadowBlurOuter1" stdDeviation="2"/><feColorMatrix in="shadowBlurOuter1" values="0 0 0 0 0 0 0 0 0 0 0 0 0 0 0 0 0 0 0.5 0"/></filter><circle id="b" cx="25" cy="25" r="25"/></defs><g fill="none" fill-rule="evenodd"><g transform="translate(4 2)"><use fill="#000" filter="url(#a)" xlink:href="#b"/><use fill="#005DAC" xlink:href="#b"/></g><path d="M13 11h32v32H13z"/><path fill="#FFF" fill-rule="nonzero" d="M34.272 15.922a3.33 3.33 0 013.322 3.322v14.021a3.657 3.657 0 01-3.558 3.659c-.31.009-.588.015-.827.02l-.585.002-.247-.008a1.218 1.218 0 01-.188-.022h-9.02a3.603 3.603 0 01-3.603-3.605V19.526a3.602 3.602 0 013.604-3.604h11.102zm0 1.333H23.17a2.27 2.27 0 00-2.271 2.271v13.785a2.268 2.268 0 002.27 2.27h10.742l-.012.012.1-.002a2.321 2.321 0 002.253-2.128l.008-.198V19.244a1.997 1.997 0 00-1.988-1.989zm-.501 14.294a.667.667 0 01.119 1.323l-.12.01h-7.553a.667.667 0 01-.12-1.322l.12-.01h7.554zm-9.917.202a.465.465 0 110 .93.465.465 0 010-.93zm9.917-3.97a.667.667 0 01.119 1.323l-.12.011h-7.553a.667.667 0 01-.12-1.323l.12-.01h7.554zm-9.917.202a.465.465 0 110 .93.465.465 0 010-.93zm9.917-3.96a.667.667 0 01.119 1.323l-.12.01h-7.553a.667.667 0 01-.12-1.322l.12-.01h7.554zm-9.917.202a.465.465 0 110 .93.465.465 0 010-.93zm9.917-4.106a.666.666 0 01.119 1.322l-.12.01h-7.553a.667.667 0 01-.12-1.322l.12-.01h7.554zm-9.917.201a.465.465 0 110 .93.465.465 0 010-.93z"/></g></svg>