<svg xmlns="http://www.w3.org/2000/svg" xmlns:xlink="http://www.w3.org/1999/xlink" width="58" height="58"><defs><filter id="a" width="128%" height="128%" x="-14%" y="-10%" filterUnits="objectBoundingBox"><feOffset dy="2" in="SourceAlpha" result="shadowOffsetOuter1"/><feGaussianBlur in="shadowOffsetOuter1" result="shadowBlurOuter1" stdDeviation="2"/><feColorMatrix in="shadowBlurOuter1" values="0 0 0 0 0 0 0 0 0 0 0 0 0 0 0 0 0 0 0.5 0"/></filter><circle id="b" cx="25" cy="25" r="25"/></defs><g fill="none" fill-rule="evenodd"><g transform="translate(4 2)"><use fill="#000" filter="url(#a)" xlink:href="#b"/><use fill="#005DAC" xlink:href="#b"/></g><g transform="translate(13 11)"><path d="M0 0h32v32H0z"/><circle cx="16" cy="9.905" r="3.825" stroke="#FFF" stroke-linecap="round" stroke-linejoin="round"/><path stroke="#FFF" stroke-linecap="round" stroke-linejoin="round" d="M16 15.474h0c5.854.004 10.598 4.752 10.598 10.606h0a1.365 1.365 0 01-1.356 1.349H6.75a1.364 1.364 0 01-1.363-1.364h0C5.395 20.21 10.146 15.47 16 15.475z"/><path stroke="#FFF" stroke-linecap="round" stroke-linejoin="round" d="M19.81 25.798a16.526 16.526 0 01-1.349-1.051 8.141 8.141 0 01-1.044-1.128 4.491 4.491 0 01-.7-1.196 2.564 2.564 0 01-.153-1.128c.024-.482.222-.94.556-1.287.291-.302.693-.47 1.112-.465.259-.018.518.019.762.107.258.102.485.267.663.48l.19.205.29-.305c.298-.321.72-.499 1.158-.487a1.594 1.594 0 011.562.967c.147.3.225.627.229.96.008.333-.046.664-.16.976-.112.299-.26.583-.442.845a7.617 7.617 0 01-1.288 1.425c-.29.244-.586.48-.884.716l-.502.366z"/></g></g></svg>