<svg width="19" height="19" viewBox="0 0 19 19" fill="none" xmlns="http://www.w3.org/2000/svg">
    <path d="M5.104 2.929H2.928v2.175h2.176V2.929z" fill="#B7C4EC"/>
    <path d="M.628 8.033h6.777a.628.628 0 0 0 .628-.627V.628A.628.628 0 0 0 7.405 0H.628A.628.628 0 0 0 0 .628v6.778a.628.628 0 0 0 .628.627zm.628-6.777h5.52v5.521h-5.52v-5.52zM15.086 2.929h-2.175v2.175h2.175V2.929z" fill="#B7C4EC"/>
    <path d="M10.61 8.033h6.778a.628.628 0 0 0 .628-.627V.628A.63.63 0 0 0 17.388 0H10.61a.628.628 0 0 0-.628.628v6.777a.628.628 0 0 0 .628.628zm.628-6.777h5.522v5.521h-5.522v-5.52zM5.118 12.896H2.943v2.175h2.175v-2.175z" fill="#B7C4EC"/>
    <path d="M7.42 9.966H.64a.627.627 0 0 0-.628.628v6.778A.628.628 0 0 0 .641 18H7.42a.628.628 0 0 0 .629-.628v-6.778a.628.628 0 0 0-.629-.628zm-.629 6.778H1.27v-5.521H6.79v5.52z" fill="#B7C4EC"/>
    <path d="M10.55 17.476V10.49h2.816v2.744h4.087V10.49M13.366 17.464h4.088" stroke="#B7C4EC" stroke-width="1.219" stroke-linecap="round" stroke-linejoin="round"/>
</svg>
