<svg width="21" height="22" viewBox="0 0 21 22" fill="none" xmlns="http://www.w3.org/2000/svg">
<path d="M7.59003 7.99999C7.82513 7.33166 8.28918 6.7681 8.89998 6.40912C9.51078 6.05015 10.2289 5.91893 10.9272 6.0387C11.6255 6.15848 12.2588 6.52151 12.7151 7.06352C13.1714 7.60552 13.4211 8.29151 13.42 8.99999C13.42 11 10.42 12 10.42 12M10.5 16H10.51M20.5 11C20.5 16.5228 16.0228 21 10.5 21C4.97715 21 0.5 16.5228 0.5 11C0.5 5.47715 4.97715 1 10.5 1C16.0228 1 20.5 5.47715 20.5 11Z" stroke="#B6C4EC" stroke-linecap="round" stroke-linejoin="round"/>
</svg>
