<svg width="44" height="44" xmlns="http://www.w3.org/2000/svg" xmlns:xlink="http://www.w3.org/1999/xlink"><defs><circle id="a" cx="22" cy="22" r="22"/></defs><g fill="none" fill-rule="evenodd"><mask id="b" fill="#fff"><use xlink:href="#a"/></mask><use fill="#D8D8D8" xlink:href="#a"/><g mask="url(#b)" fill-rule="nonzero"><path d="M26.324 3.969c-.235-1.113-1.03-1.698-2.085-2.123a3.548 3.548 0 00-3.258.346c-.63.427-1.14 1.07-1.87 1.28-1.204.345-2.54-.615-3.702-.147-.687.277-1.122 1.073-.983 1.801.139.728.837 1.308 1.578 1.312-.787.24-1.086 1.326-.674 2.036.413.711 1.324 1.021 2.138.915.815-.106 1.546-.557 2.186-1.072.64-.515 1.222-1.105 1.901-1.568.68-.462 1.491-.796 2.308-.706 1.106.12 2.012 1.01 2.452 2.031.44 1.022.492 2.165.492 3.277.001 1.113-.041 2.242.229 3.321.032.127.083.27.205.314.177.066.341-.117.44-.278a16.324 16.324 0 002.196-5.96c.193-1.221.224-2.387-.395-3.459-.619-1.071-2.284-1.927-3.158-1.32" fill="#17282F"/><path d="M28.021 11.284c.058-.023 2.31-.601 2.173 1.627-.136 2.228-2.394 1.634-2.394 1.57 0-.064.221-3.197.221-3.197" fill="#C0776A"/><path d="M28.402 13.791c.01-.007.036.03.097.066.059.034.162.061.276.024.229-.075.439-.448.472-.86a1.427 1.427 0 00-.071-.58c-.056-.172-.15-.296-.262-.325a.184.184 0 00-.224.095c-.032.063-.021.11-.033.112-.006.006-.043-.04-.02-.135a.258.258 0 01.09-.138.264.264 0 01.209-.045c.163.023.3.195.366.38.074.188.112.415.093.649-.039.462-.282.88-.594.957a.376.376 0 01-.335-.083c-.063-.061-.071-.113-.064-.117" fill="#B85549"/><path d="M22.836 3.415c-3.335-.235-6.215 2.33-6.39 5.695-.144 2.801-.272 5.83-.241 7.356.066 3.273 3.318 3.756 3.318 3.756s-.072.97-.152 2.175c-.162 2.426 1.696 4.508 4.106 4.6 2.362.09 4.349-1.769 4.436-4.15l.483-13.195c.119-3.25-2.341-6.01-5.56-6.237" fill="#C0776A"/><path d="M19.458 20.334s1.985.108 4.142-1.334c0 0-.976 2.455-4.2 2.178l.058-.844" fill="#B85549"/><path d="M17.4 11.58c-.007.222.211.409.487.42.276.01.506-.16.513-.38.007-.222-.21-.41-.487-.42-.276-.01-.506.16-.513.38M17.207 10.39c.057.07.399-.243.887-.246.487-.011.848.291.9.218.026-.033-.032-.162-.19-.299a1.066 1.066 0 00-1.426.022c-.149.141-.199.272-.17.304M22.4 11.381c-.007.221.211.408.487.419.276.01.506-.16.513-.38.007-.221-.211-.409-.487-.42-.276-.01-.506.16-.513.381M22.207 10.39c.057.07.4-.242.887-.245.487-.012.848.29.9.217.026-.032-.032-.162-.19-.298a1.094 1.094 0 00-.72-.264 1.067 1.067 0 00-.705.285c-.15.141-.2.272-.172.304M20.41 14.178c.002-.029-.293-.08-.77-.14-.122-.013-.237-.037-.257-.124-.03-.093.02-.231.077-.38l.35-.978c.487-1.392.838-2.536.785-2.556-.054-.02-.49 1.091-.977 2.483l-.335.983c-.045.146-.122.312-.06.503a.31.31 0 00.201.186c.078.024.146.025.206.028.48.023.778.023.78-.005M21.72 14.6c-.078-.004-.075.521-.518.898-.442.377-.998.323-1.002.396-.007.033.125.101.36.106.23.006.565-.071.836-.301.27-.231.385-.537.4-.753.019-.22-.04-.349-.076-.346M22.203 8.748c.048.124.528.061 1.093.121.566.05 1.023.203 1.097.091.033-.053-.048-.169-.233-.287a1.897 1.897 0 00-.814-.263c-.34-.033-.65.02-.854.1-.207.082-.31.18-.29.238M17.214 8.95c.093.118.454-.008.888-.018.435-.024.804.074.888-.051.036-.06-.023-.18-.185-.291a1.23 1.23 0 00-.723-.189 1.228 1.228 0 00-.707.245c-.153.123-.202.246-.161.304" fill="#17282F"/><path d="M16 7.777c.628.923 3.12.548 4.365-.401.87-.664 1.639-1.173 2.697-1.435.713-.177 1.481.024 2.101.421.62.399 1.107.979 1.519 1.595-.762 1.72-.434 3.71-.092 5.563.038.205.085.426.24.563.263.231.686.088.94-.153.41-.386.593-.954.723-1.505.298-1.254.406-2.567.202-3.84-.205-1.274-.734-2.508-1.6-3.453-1.08-1.181-2.653-1.855-4.24-1.925-1.587-.071-3.177.44-4.499 1.334-.613.414-1.186.926-1.53 1.588" fill="#17282F"/><path d="M27.934 25.086l.122-3.886s-.764 3.556-4.765 3.51c-3.824-.044-3.755-3.133-3.755-3.133l-.136 1.566v6.327l2.495 10.322 3.185.408 3.52-14.11-.666-1.004" fill="#F2776B"/><path d="M19.8 23.823a.41.41 0 00.046.082c.035.05.076.132.151.223.137.189.37.44.709.688.337.25.79.477 1.324.625.534.145 1.15.202 1.786.123a5.803 5.803 0 001.716-.518c.5-.237.92-.51 1.254-.758.334-.25.589-.471.759-.631.086-.079.148-.144.192-.187a.423.423 0 00.063-.07.415.415 0 00-.074.058l-.203.175c-.175.152-.434.367-.771.608a7.78 7.78 0 01-1.252.737 5.862 5.862 0 01-1.694.506 4.67 4.67 0 01-1.757-.116 4.118 4.118 0 01-1.31-.599 3.478 3.478 0 01-.717-.661c-.145-.18-.215-.29-.222-.285" fill="#17282F"/><path d="M22.456 76.856L22.4 60.24l.07-21.693 5.439-13.335.174-4.013 3.153 2.391s4.592 15.843 4.662 15.294c.071-.55-1.11 14.075-1.11 14.075L36.6 77.6l-14.144-.744" fill="#E7E8E5"/><path d="M18.063 22.86c.926-1.624 1.407-1.455 1.407-1.455l-.049.579V23.2l.438 5.219 2.941 9.786-.458 21.664L21.244 77 7.6 75.881l4.755-23.593-1.701-16.297.12-8.979 7.289-4.152" fill="#E7E8E5"/><path d="M22.25 61.2c.006 0 .012-.082.016-.238l.014-.682.032-2.507.123-8.272.134-8.274.03-2.507.001-.682a1.341 1.341 0 00-.01-.238c-.006 0-.013.081-.022.237l-.03.681-.081 2.507c-.06 2.117-.128 5.041-.18 8.273-.053 3.23-.079 6.156-.077 8.274.003 1.059.007 1.916.019 2.508l.015.682c.006.156.011.238.017.238" fill="#17282F"/><path fill="#DADBD8" d="M31.2 26.2l-.644.487.453 2.962L23.4 37.6l6.91-9.053-.588-2.347H31.2"/><path d="M22.255 47.513l11.656-3.415.386-8.845L31.1 23.6s7.62 3.798 8.14 6.215c.518 2.417 1.768 8.293 1.901 12.54.12 3.797.136 6.336-.731 7.548-1.46 2.037-7.707 3.358-13.942 3.053-4.386-.214-8.766-1.367-11.468-3.058" fill="#E7E8E5"/><path d="M23.2 37.8a.276.276 0 00.038-.043l.105-.13.397-.507 1.45-1.873 4.756-6.197.358-.468.012-.016-.005-.02-.592-2.345-.038.05 1.481-.003h.038v-.037l-.006-2.615v-.016l-.013-.01-2.299-1.739-.631-.471-.166-.121a.422.422 0 00-.059-.039.409.409 0 00.053.046l.16.128.621.485 2.283 1.762-.013-.025-.006 2.615.038-.038-1.481-.002h-.051l.012.05.589 2.346.007-.035-.358.468-4.737 6.212c-.6.795-1.088 1.439-1.428 1.888l-.385.517-.099.135a.3.3 0 00-.031.048" fill="#17282F"/><path d="M10.703 27s-2.743 2.04-2.981 5.324a967.274 967.274 0 00-.716 11.557c-.125 2.476 1.788 8.273 6.77 6.63 2.987-.984 14.024-4.764 14.024-4.764l-.734-4.722-13.1.786-.26-11.007L10.702 27" fill="#E7E8E5"/><path d="M27.2 41.653s3.726-.4 4.59-.193c.829.199 2.01 1.208 2.01 1.208l-.017 1.465-5.995 1.667-.588-4.147" fill="#C0776A"/><path d="M22.6 38a.317.317 0 00-.017-.05l-.056-.146-.221-.555-.83-2.038-1.239-3.018c-.118-.283-.234-.578-.38-.866-.14-.291-.304-.577-.474-.865a18.988 18.988 0 00-1.177-1.704c-.213-.277-.429-.546-.652-.804l.008.041.461-1.178.016-.039-.04-.013-1.931-.659.02.054 2.19-3.668c.264-.445.49-.8.73-.947a.967.967 0 01.294-.119c.07-.017.107-.023.107-.026 0 0-.038.001-.11.014a.913.913 0 00-.303.111c-.124.071-.25.198-.371.361a6.667 6.667 0 00-.385.582l-2.216 3.654-.024.04.044.015 1.93.664-.025-.053-.463 1.177-.009.024.016.018c.22.256.436.526.648.801.432.56.826 1.128 1.173 1.696.17.286.335.57.473.857.146.286.261.577.38.86l1.256 3.012.854 2.028.235.55.064.142A.225.225 0 0022.6 38M37.6 43l-.015-.043a.428.428 0 00-.071-.11.717.717 0 00-.406-.218c-.19-.044-.422-.034-.671.002a3.62 3.62 0 00-.797.209c-.55.21-.992.546-1.262.836a2.834 2.834 0 00-.293.37.714.714 0 00-.085.154c.013.01.141-.205.417-.48.276-.273.71-.592 1.25-.798.27-.104.535-.173.78-.212.245-.038.468-.054.65-.02.183.03.32.105.395.181.075.075.101.134.108.13M33.202 32.8c.005 0 .025-.084.054-.235.024-.074.059-.162.095-.266.052-.097.102-.213.176-.33.144-.24.348-.504.603-.774.262-.264.567-.54.925-.784.711-.494 1.46-.782 2.021-.895a4.34 4.34 0 01.674-.082c.16-.008.25-.014.25-.02 0-.005-.089-.01-.251-.012-.163-.01-.397.016-.684.058-.572.1-1.338.385-2.06.886-.361.247-.67.529-.932.799-.256.276-.458.549-.598.795-.072.122-.12.242-.167.343-.034.107-.065.199-.084.274-.02.157-.028.243-.022.243M11.21 46.4l.003-.056.004-.165c.004-.146.01-.36.031-.634a8.821 8.821 0 01.466-2.275c.082-.232.174-.473.318-.696.142-.223.353-.41.615-.522.528-.228 1.163-.198 1.809-.234l4.23-.178c3.494-.153 6.603-.284 8.556-.389l-.026-.02.276 1.684a1544.733 1544.733 0 01.098.561l.01.039-.003-.04-.014-.115-.064-.449-.254-1.689-.003-.022-.023.001-8.557.357-4.23.184c-.324.016-.64.024-.95.05-.309.026-.612.078-.883.198a1.426 1.426 0 00-.64.55c-.147.231-.24.477-.32.71a8.571 8.571 0 00-.443 2.293c-.016.275-.017.49-.016.635l.005.166a.308.308 0 00.004.056" fill="#17282F"/><path d="M13.591 36c-.027 0-.05 1.299-.05 2.9 0 1.602.023 2.9.05 2.9.028 0 .05-1.298.05-2.9 0-1.601-.022-2.9-.05-2.9M39.12 29.6s.01.036.033.105c.021.07.062.17.095.31.077.273.174.683.283 1.217.22 1.067.492 2.63.796 4.584.151.978.312 2.055.47 3.217.081.58.131 1.187.173 1.814.041.626.075 1.273.099 1.94.048 1.331.076 2.738.038 4.204a21.53 21.53 0 01-.055 1.108c-.01.187-.04.37-.063.557-.04.183-.073.368-.135.547a3.11 3.11 0 01-.524 1.003 2.26 2.26 0 01-.9.694l-.005.002h-.001c-.73.378-1.529.652-2.345.897-.817.246-1.662.444-2.52.62-1.92.393-3.823.624-5.662.691a26.28 26.28 0 01-2.703-.07c-.88-.062-1.74-.154-2.57-.277a27.053 27.053 0 01-4.612-1.074 23.59 23.59 0 01-3.729-1.603l-.004.052 5.116-1.814 1.378-.493.356-.13.12-.046s-.042.012-.123.039l-.358.122c-.318.11-.783.27-1.383.479l-5.125 1.79-.06.02.056.03a23.557 23.557 0 003.735 1.618c1.403.468 2.957.841 4.623 1.085.832.124 1.692.218 2.574.28.882.064 1.789.1 2.711.073a34.56 34.56 0 005.676-.69c.86-.178 1.707-.376 2.527-.623.82-.247 1.621-.521 2.36-.904l-.006.003c.38-.152.69-.415.936-.72.246-.309.422-.663.537-1.03.064-.183.098-.371.137-.558.024-.189.054-.377.064-.564.03-.374.043-.745.054-1.112a66.485 66.485 0 00-.044-4.21 64.17 64.17 0 00-.103-1.94 25.842 25.842 0 00-.177-1.818 169.732 169.732 0 00-.48-3.217c-.312-1.954-.591-3.515-.82-4.582a16.67 16.67 0 00-.298-1.216c-.035-.138-.078-.238-.102-.307a2.626 2.626 0 00-.04-.103" fill="#17282F"/><path d="M34 43c-2.03-2.178-1.94-6.052-.776-8.8.108 2.978.47 5.617.748 8.51" fill="#DADBD8"/><path d="M33.202 34.8a.368.368 0 000 .094l.02.268.084.986.292 3.252.277 3.253.081.986.026.268a.381.381 0 00.014.093.37.37 0 00.004-.094l-.009-.27c-.009-.233-.027-.57-.052-.987-.052-.834-.14-1.985-.252-3.256a176.54 176.54 0 00-.318-3.25l-.113-.983-.035-.268a.374.374 0 00-.019-.092M28.391 31c-.028 0-.05.761-.05 1.7s.022 1.7.05 1.7c.028 0 .05-.761.05-1.7s-.022-1.7-.05-1.7" fill="#17282F"/><path d="M29.6 36.471a1.72 1.72 0 01-.345.878c-.177.236-.535.466-.824.45 0 0-.72.063-1.107-.572-.351-.575-.438-1.77-.156-2.477.193-.486.628-.937 1.14-.95.67-.016 1.09.482 1.233.986" fill="#DADBD8"/><path d="M29.536 34.851s-.016-.135-.131-.349a1.457 1.457 0 00-.267-.35 1.24 1.24 0 00-.841-.35 1.028 1.028 0 00-.37.048 1.46 1.46 0 00-.66.474 1.912 1.912 0 00-.389.81c-.069.306-.09.63-.072.96.033.507.132 1.011.412 1.397.142.189.336.325.537.405.202.08.409.112.607.102h-.005a.912.912 0 00.436-.108c.126-.064.236-.143.327-.228.184-.176.285-.371.357-.532a1.567 1.567 0 00.123-.5l-.001-.037c-.013-.003-.012.203-.158.52a1.64 1.64 0 01-.358.508 1.39 1.39 0 01-.318.213.856.856 0 01-.404.096h-.004c-.365.012-.807-.128-1.074-.488-.262-.36-.362-.857-.393-1.353-.035-.64.073-1.286.437-1.715.173-.216.39-.38.621-.457a.956.956 0 01.347-.05 1.217 1.217 0 01.81.32c.124.112.21.23.271.331.122.204.151.337.16.333" fill="#17282F"/><path d="M30 36.471a1.718 1.718 0 01-.345.878c-.176.236-.535.466-.823.45 0 0-.72.062-1.108-.572-.351-.575-.438-1.77-.156-2.477.194-.485.629-.937 1.14-.95.67-.016 1.09.482 1.233.986" fill="#DADBD8"/><path d="M29.936 34.851s-.016-.136-.131-.349a1.444 1.444 0 00-.267-.35 1.246 1.246 0 00-.842-.35 1.023 1.023 0 00-.37.048c-.247.08-.477.251-.66.474a1.908 1.908 0 00-.388.81c-.069.305-.09.63-.072.96.033.507.132 1.011.412 1.397.142.189.336.326.537.405.202.08.409.111.607.103h-.005a.913.913 0 00.436-.109c.126-.064.235-.143.327-.228a1.63 1.63 0 00.357-.533 1.57 1.57 0 00.123-.5l-.002-.036c-.012-.004-.011.203-.157.52a1.643 1.643 0 01-.358.508c-.09.08-.197.154-.318.213a.853.853 0 01-.404.096h-.004c-.365.013-.807-.128-1.075-.488-.26-.361-.36-.857-.392-1.353-.035-.64.073-1.286.437-1.716.173-.215.39-.379.621-.456a.964.964 0 01.347-.05 1.209 1.209 0 01.811.32c.123.111.21.23.27.331.122.204.15.337.16.333" fill="#17282F"/><path d="M29.23 34.612c.354-.068.72.166.87.483.15.317.117.69-.002 1.019-.06.168-.144.33-.27.46a.721.721 0 01-.483.226c-.27.008-.512-.17-.67-.381a1.412 1.412 0 01-.228-1.198c.074-.271.281-.549.571-.556" fill="#DADBD8"/><path d="M29.028 34.875c0-.002-.022-.005-.063-.002a.438.438 0 00-.169.057c-.136.073-.293.257-.357.524-.066.263-.058.605.097.934.078.163.188.326.35.449.155.124.383.204.601.141a.834.834 0 00.481-.384c.103-.171.163-.352.2-.527.075-.351.014-.699-.155-.922a.842.842 0 00-.544-.338.61.61 0 00-.179 0c-.04.008-.06.013-.06.016.002.009.086-.016.233.014a.83.83 0 01.503.34c.152.212.205.54.129.875a1.66 1.66 0 01-.195.501.76.76 0 01-.435.349c-.188.054-.385-.013-.53-.126a1.165 1.165 0 01-.332-.419 1.38 1.38 0 01-.107-.89c.053-.256.193-.434.317-.511.125-.08.216-.072.215-.081" fill="#17282F"/><path d="M28.606 37.2c.011.003.028-.05.08-.113a.56.56 0 01.258-.173c.118-.038.234-.044.318-.051.084-.007.138-.014.138-.025 0-.011-.052-.025-.138-.033a.855.855 0 00-.342.03.503.503 0 00-.28.218c-.047.084-.044.146-.034.147M28.401 34.601c-.008.005.026.041.105.084.08.042.207.087.36.106.153.018.296.006.391-.015.097-.02.147-.046.143-.053-.01-.017-.236.045-.518.009-.283-.033-.464-.144-.48-.13M17.6 23c-.002-.002-.02.005-.054.02a1.568 1.568 0 00-.145.074c-.124.07-.298.18-.49.345a3.463 3.463 0 00-1.05 1.643c-.226.73-.348 1.415-.4 1.912-.028.248-.044.45-.053.589-.009.14-.01.216-.005.217.006 0 .02-.076.037-.214l.08-.585c.068-.493.198-1.168.422-1.895a3.569 3.569 0 011.01-1.622c.369-.336.657-.468.648-.483M19.539 40.625c-.472-.017-.848-.447-1.32-.424-.349.017-.647.33-.617.65.03.32.38.582.729.546.494-.053.783-.584 1.269-.686" fill="#17282F"/><path d="M15.764 41c.135 0 .277-.012.424-.035l-.025-.157c-.56.09-1.028-.002-1.396-.276-.461-.345-.759-.961-.884-1.832l-.005-.033c-.051-.345-.122-7.117-.122-8.403 0-2.008 1.737-2.282 1.811-2.293.07-.013 1.65-.28 2.487 1.913.877 2.297 2.28 6.724 2.372 7.243.012.063.029.142.049.233.146.664.449 2.047-.46 2.842-1.012.888-1.81.544-1.844.53l-.064.144c.038.017.919.404 2.01-.554.98-.858.663-2.302.51-2.997-.02-.088-.036-.165-.047-.227-.094-.523-1.501-4.968-2.38-7.271-.887-2.321-2.64-2.015-2.658-2.012-.016.002-1.942.302-1.942 2.45 0 1.059.07 8.06.124 8.426l.004.032c.132.914.45 1.566.947 1.936.304.227.67.341 1.089.341" fill="#17282F"/><path d="M13.601 31.4c.02.007.046-.322.324-.752.14-.212.344-.443.616-.645.273-.201.615-.372 1-.458a3.012 3.012 0 011.973.25c.465.233.673.49.686.474.002-.002-.01-.017-.036-.046-.026-.027-.06-.073-.116-.12a2.363 2.363 0 00-.507-.358 2.897 2.897 0 00-.878-.3 2.905 2.905 0 00-1.14.023c-.398.09-.75.268-1.027.477a2.534 2.534 0 00-.62.674 1.96 1.96 0 00-.24.561c-.02.07-.024.125-.03.162-.006.038-.007.057-.005.058M9.602 44.2c.016.004.043-.27.215-.668a2.916 2.916 0 011.06-1.275c.274-.178.582-.26.862-.31.282-.047.54-.064.757-.08l.515-.035a.835.835 0 00.189-.026.85.85 0 00-.19-.005c-.139.002-.311.005-.517.01a6.44 6.44 0 00-.767.062c-.285.046-.605.13-.892.316a2.835 2.835 0 00-1.07 1.32c-.08.206-.124.38-.144.501a.718.718 0 00-.018.19" fill="#17282F"/><path d="M17.4 41.52s-1.54-2.374-1.935-2.685c-.394-.311-3.757-1.856-4.15-1.608-.394.248-.152.787-.152.787s-1.424-.507-1.575-.307c-.152.2-.182.539 0 .817 0 0-.788-.124-.788.123 0 .246.09.555.454.832.364.278 2.728 1.879 2.918 2.321l.765-.047 4.463-.233" fill="#C0776A"/><path d="M13 40.8a.546.546 0 00-.072-.143 2.67 2.67 0 00-.258-.354c-.239-.285-.637-.628-1.14-.912a8.8 8.8 0 00-1.347-.603 11.218 11.218 0 00-.424-.145.67.67 0 00-.159-.042c-.002.005.05.03.148.071l.413.168c.348.142.832.338 1.327.618.495.281.89.61 1.137.882.249.27.362.467.375.46M15 40.8a.817.817 0 00-.074-.174 9.267 9.267 0 00-.235-.455 4.343 4.343 0 00-.42-.635c-.093-.11-.188-.224-.319-.323a11.034 11.034 0 00-1.891-1.014 4.266 4.266 0 00-.479-.164A.791.791 0 0011.4 38c-.003.014.253.075.64.251a13.936 13.936 0 011.868 1.027c.115.086.217.201.307.306.18.215.316.432.427.616l.256.44c.06.105.097.161.101.159" fill="#B85549"/></g></g></svg>