<svg width="24" height="24" xmlns="http://www.w3.org/2000/svg"><g fill="none" fill-rule="evenodd"><path d="M0 0h24v24H0z"/><path d="M12 4c-4.411 0-8 3.589-8 8 0 1.932.689 3.706 1.833 5.09.003.004.003.01.006.013a7.998 7.998 0 003.021 2.254l.04.017c.094.04.188.076.283.112.038.014.075.029.113.042a7.918 7.918 0 001.25.337l.183.032c.084.014.168.025.253.036l.164.02c.096.01.193.018.29.024a7.609 7.609 0 00.994.01c.045-.001.09-.006.135-.01.097-.006.194-.013.29-.023l.164-.02c.084-.012.169-.023.253-.036l.183-.033a8.038 8.038 0 00.622-.14 7.755 7.755 0 00.628-.196l.112-.042c.096-.036.19-.073.284-.112l.04-.017a8 8 0 003.02-2.255c.003-.003.004-.009.006-.012A7.967 7.967 0 0020 12c0-4.411-3.589-8-8-8zm3.242 14.725l-.012.006c-.095.046-.192.09-.29.131-.022.01-.043.02-.066.029a7.234 7.234 0 01-1.134.369c-.063.015-.125.03-.188.043-.07.015-.139.027-.208.04-.057.01-.113.021-.17.03-.077.013-.156.022-.235.032l-.15.02c-.09.01-.18.015-.27.022-.041.002-.081.007-.122.009a7.566 7.566 0 01-.794 0c-.04-.002-.08-.006-.12-.01a6.998 6.998 0 01-.272-.021l-.15-.02c-.078-.01-.157-.02-.235-.032-.057-.009-.113-.02-.17-.03a7.536 7.536 0 01-.207-.04c-.064-.013-.126-.028-.189-.043-.06-.015-.12-.029-.178-.045a7.838 7.838 0 01-.588-.182l-.11-.04a7.234 7.234 0 01-.258-.102l-.066-.028a7.46 7.46 0 01-.302-.137A7.503 7.503 0 016.34 16.86a5.886 5.886 0 013.852-4.038c.037.023.076.043.114.065l.067.038c.08.042.16.081.243.117.063.027.128.05.193.075l.039.014c.361.128.748.201 1.153.201s.792-.073 1.153-.201l.038-.014a3.32 3.32 0 00.436-.192l.068-.038c.038-.022.077-.042.114-.065a5.887 5.887 0 013.852 4.037 7.51 7.51 0 01-2.42 1.865zM9.067 9.867A2.937 2.937 0 0112 6.933a2.937 2.937 0 012.933 2.934 2.931 2.931 0 01-1.664 2.64l-.04.02a3 3 0 01-2.458 0l-.04-.02a2.931 2.931 0 01-1.664-2.64zm8.994 6.486a6.425 6.425 0 00-3.746-3.913 3.456 3.456 0 001.152-2.573A3.47 3.47 0 0012 6.4a3.47 3.47 0 00-3.467 3.467c0 1.021.447 1.938 1.152 2.573a6.426 6.426 0 00-3.746 3.913A7.423 7.423 0 014.533 12c0-4.117 3.35-7.467 7.467-7.467 4.117 0 7.467 3.35 7.467 7.467a7.424 7.424 0 01-1.406 4.353z" stroke="#B7C4EC" stroke-width=".2" fill="#B7C4EC" fill-rule="nonzero"/></g></svg>