<svg xmlns="http://www.w3.org/2000/svg" width="24" height="24"><g fill="none" fill-rule="evenodd"><path d="M24 0H0v24h24z"/><g fill="#B7C4EC" fill-rule="nonzero"><path d="M10.683 12.23L4.2 5.747a.52.52 0 010-.759l.825-.824a.52.52 0 01.759 0l7.686 7.686a.52.52 0 010 .758l-7.685 7.685a.521.521 0 01-.759 0l-.824-.824a.521.521 0 010-.758l6.48-6.482z"/><path d="M17.016 12.23l-6.481-6.482a.52.52 0 010-.759l.824-.823a.518.518 0 01.759-.001l7.684 7.685a.52.52 0 010 .758l-7.685 7.685a.519.519 0 01-.759 0l-.824-.824a.521.521 0 010-.758l6.48-6.482z"/></g></g></svg>