<svg xmlns="http://www.w3.org/2000/svg" width="21" height="17"><g fill="none" fill-rule="evenodd"><path d="M-2-4h24v24H-2z"/><path fill="#B7C4EC" d="M7.272 9.836c1.702-1.106 3.975-1.188 5.751-.217 1.288.708 2.426 1.987 3.298 3.592.097.175.328.66.527 1.11a.473.473 0 01.206-.09l.09-.009h2.318l-.031-.209c-.232-1.364-.791-2.2-1.584-2.643l-.151-.079a3.14 3.14 0 00-1.705-.271l-.113.016a.5.5 0 01-.2-.98l.117-.02.081-.01c.7-.08 1.491-.002 2.253.364 1.303.625 2.16 1.948 2.369 4.074.025.344-.195.694-.553.75l-.101.008h-2.627l.022.063c.028.082.05.155.065.22l.019.091a.662.662 0 010 .239.512.512 0 01-.512.426l-1.14.013-11.306-.03-.113-.012.014.003-.094-.005c-.34-.049-.592-.38-.486-.724.023-.09.05-.184.078-.283H1.107c-.393 0-.64-.351-.604-.696.195-2.158 1.054-3.505 2.372-4.138a4.1 4.1 0 012.249-.363l.148.02.05.01a.5.5 0 01-.11.99l-.203-.026a3.135 3.135 0 00-1.701.27c-.888.427-1.51 1.305-1.746 2.808l-.018.124h2.38c.06 0 .117.01.17.03l.062-.161.111-.276c.76-1.789 1.75-3.157 3.005-3.979zm5.271.66c-1.454-.795-3.333-.727-4.724.178-1.064.696-1.942 1.91-2.63 3.53-.123.292-.25.632-.357.958l-.027.082 1.327.002 9.195.032.836-.011-.205-.486a24.95 24.95 0 00-.437-.941l-.077-.15c-.79-1.452-1.802-2.59-2.9-3.193zM12.4 12.1a.3.3 0 01.292.231l.008.069v.65h.65a.3.3 0 01.069.592l-.069.008h-.65v.65a.3.3 0 01-.592.069L12.1 14.3v-.65h-.65a.3.3 0 01-.069-.592l.069-.008h.65v-.65a.3.3 0 01.3-.3zM4.167 3.667a2.61 2.61 0 11.001 5.223 2.61 2.61 0 01-.002-5.223zm12.666 0a2.61 2.61 0 110 5.222 2.61 2.61 0 010-5.222zm-12.666 1a1.61 1.61 0 10-.001 3.22 1.61 1.61 0 00.001-3.22zm12.666 0a1.61 1.61 0 100 3.223 1.61 1.61 0 00.001-3.223zM10.5.5a3.667 3.667 0 110 7.335A3.667 3.667 0 0110.5.5zm0 1a2.667 2.667 0 100 5.334 2.667 2.667 0 000-5.334z"/></g></svg>