<svg xmlns="http://www.w3.org/2000/svg" width="15" height="17"><g fill="none" fill-rule="evenodd"><path d="M-5-4h24v24H-5z"/><g stroke="#B7C4EC"><path d="M8.448 8.407h3.539M8.448 9.634h3.539m-2.312-1.22c.723.046 1.227.606 1.262 1.316.034.606-.41.96-.948 1.118-.491.143-1.023.116-1.527.034m2.202 2.584l-2.202-2.564" stroke-linecap="round" stroke-width=".8"/><path stroke-linecap="round" stroke-width=".7" d="M3.341 2.925h6.661M3.341 4.684h6.661m-6.661 1.65h8.986"/><path stroke-width=".7" d="M11.66.518l-.062 2.087c.007.381.218.62.545.559l2.373-.47"/><path stroke-linecap="round" stroke-width=".7" d="M3.58 9.941h1.929"/><path stroke-width=".7" d="M14.414 15.586l.02-12.709a.68.68 0 00-.245-.525A323.634 323.634 0 0112.055.58a.643.643 0 00-.41-.15H1.165a.583.583 0 00-.572.586v14.311c0 .17.184.273.327.178l.88-.607a.207.207 0 01.26.02l1.042.989a.21.21 0 00.28.007l1.145-.989a.2.2 0 01.273.007l1.064.982a.198.198 0 00.272.006l1.153-.995a.207.207 0 01.272 0l1.112.982a.207.207 0 00.272 0l1.105-.968a.204.204 0 01.286.013l.92.955c.076.082.199.082.287.013l1.152-.995a.208.208 0 01.26-.007l1.131.852c.13.09.328-.013.328-.184z"/></g></g></svg>