<svg width="24" height="24" xmlns="http://www.w3.org/2000/svg"><g fill="none" fill-rule="evenodd"><path d="M0 0h24v24H0z"/><g stroke="#4B4A4A" stroke-linecap="round"><path d="M15.216 19.825H5.41a.76.76 0 01-.756-.757V5.255a.76.76 0 01.756-.757h9.805a.76.76 0 01.757.757v4.247M7.15 7.327h6.443M7.15 9.986h4.132M7.15 12.639h4.132"/><path d="M15.877 19.866h-.075a2.476 2.476 0 01-2.468-2.468V11.99a2.476 2.476 0 012.468-2.468h.075a2.476 2.476 0 012.468 2.468v5.407a2.476 2.476 0 01-2.468 2.468zM13.811 14.943h4.35"/></g></g></svg>