<svg width="24" height="24" xmlns="http://www.w3.org/2000/svg"><g fill="none" fill-rule="evenodd"><path d="M0 0h24v24H0z"/><g transform="translate(2 2)" fill="#4A4A4A" fill-rule="nonzero" stroke="#FFF" stroke-width=".6"><circle cx="10" cy="14.785" r="1"/><path d="M10 0C4.473 0 0 4.473 0 10s4.473 10 10 10 10-4.473 10-10S15.527 0 10 0zm0 18.438A8.433 8.433 0 011.562 10 8.433 8.433 0 0110 1.562 8.433 8.433 0 0118.438 10 8.433 8.433 0 0110 18.438z"/><path d="M10 5.02a3.129 3.129 0 00-3.125 3.125.781.781 0 101.563 0c0-.862.7-1.563 1.562-1.563.862 0 1.563.701 1.563 1.563 0 .861-.701 1.562-1.563 1.562a.781.781 0 00-.781.781v1.953a.781.781 0 101.562 0v-1.27a3.13 3.13 0 002.344-3.026A3.129 3.129 0 0010 5.02z"/></g></g></svg>