<svg width="24" height="24" viewBox="0 0 24 24" fill="none" xmlns="http://www.w3.org/2000/svg">
<path fill-rule="evenodd" clip-rule="evenodd" d="M17.1953 8.20024C17.1953 5.33281 14.8624 3 11.9951 3C9.12762 3 6.79482 5.33281 6.79482 8.20024C6.79482 9.97632 7.69006 11.5471 9.05264 12.4856C7.78043 12.9246 6.61423 13.6499 5.63452 14.6296C3.93562 16.3285 3 18.5874 3 20.99H4.40543C4.40543 16.8051 7.81009 13.4005 11.9951 13.4005C14.8624 13.4005 17.1953 11.0677 17.1953 8.20024ZM11.9951 11.9951C9.90257 11.9951 8.20024 10.2927 8.20024 8.20024C8.20024 6.10776 9.90257 4.40543 11.9951 4.40543C14.0874 4.40543 15.7897 6.10776 15.7897 8.20024C15.7897 10.2927 14.0874 11.9951 11.9951 11.9951ZM17.6922 19.2382L21 15.9304L17.6922 12.6225L16.6983 13.6162L18.2744 15.1924H17.1258C14.6675 15.1924 12.6658 17.1924 12.6637 19.6507L12.6626 20.9894L14.068 20.9905L14.0693 19.652C14.0706 17.968 15.4419 16.5979 17.1258 16.5979H18.3447L16.6983 18.2444L17.6922 19.2382Z" fill="white"/>
</svg>
