<svg width="104" height="56" viewBox="0 0 104 56" fill="none" xmlns="http://www.w3.org/2000/svg">
<path d="M47.8361 41.0353C48.7703 43.5597 48.9197 50.9429 36.0718 55.2537C35.6127 55.4081 35.1543 55.0063 35.251 54.5314C35.6003 52.8285 37.493 49.1749 36.0191 44.2791L47.8339 41.037L47.8361 41.0353Z" fill="#5A96FC"/>
<path d="M42.5893 27.3071C41.1616 25.0248 35.1243 19.2579 23.8593 26.7868C23.4582 27.0558 23.4951 27.6643 23.9301 27.8779C25.4895 28.6427 28.6055 30.5628 31.5771 34.7227L42.5893 27.3071Z" fill="#5A96FC"/>
<path d="M34.248 45.2622C39.6218 44.9262 47.8734 43.9017 56.6555 40.9428C64.8935 38.166 71.4927 34.3877 76.2725 29.7177C81.3842 24.7225 83.8977 21.0296 85.1063 18.8114C86.3965 16.4435 86.6672 14.9307 86.4534 14.5681C86.4432 14.537 86.4229 14.5067 86.3986 14.4759C85.9764 13.9388 81.1973 11.4708 68.6852 12.7253C55.5477 14.0405 46.3837 20.441 29.5329 35.2431L29.4528 35.3133L34.1513 45.2706L34.2458 45.2639L34.248 45.2622Z" fill="#005CFB"/>
<path d="M86.2907 14.5534C85.8027 13.9328 80.7505 11.6474 68.7028 12.8538C55.3955 14.1886 46.1402 20.8353 29.6282 35.339L34.2408 45.1145C48.2671 44.2367 65.8905 39.6579 76.1771 29.6073C85.8156 20.1911 86.6488 15.027 86.3287 14.6198C86.3232 14.5992 86.312 14.5759 86.2929 14.5517M86.513 14.3786C86.5459 14.4205 86.5692 14.4591 86.5859 14.503C86.8406 14.9901 86.4724 16.6009 85.236 18.8696C84.0204 21.0968 81.4993 24.8029 76.3761 29.8106C71.5804 34.4966 64.9623 38.2827 56.7055 41.0672C47.9085 44.0342 39.6451 45.0573 34.2629 45.3963L34.0722 45.4074L33.991 45.2362L29.3784 35.4606L29.2895 35.2706L29.4476 35.132C46.3209 20.3086 55.502 13.8982 68.678 12.5776C80.2899 11.4149 85.8174 13.4939 86.5148 14.3808L86.513 14.3786Z" fill="white"/>
<path d="M36.2685 45.1458C36.2685 45.1458 33.8617 37.7317 31.0311 33.8599" stroke="white" stroke-width="0.279979" stroke-miterlimit="10"/>
<path d="M68.7124 12.8596C81.2532 11.5648 86.2178 14.1327 86.3382 14.6256C86.6169 14.98 86.1638 19.083 79.5695 26.2196C78.5846 27.2861 77.4644 28.4162 76.1884 29.6154C76.1884 29.6154 75.1184 28.4765 73.7983 26.4443C73.0054 25.2229 72.1211 23.6815 71.3252 21.8675C68.7921 16.1092 68.7141 12.8618 68.7141 12.8618L68.7124 12.8596Z" fill="#5A96FC"/>
<path d="M47.0073 32.2129C48.5383 32.1987 39.261 37.7801 33.6469 40.4242C30.9632 41.6902 28.7686 41.6349 28.5908 41.4542C28.4131 41.2734 29.7303 39.796 32.4084 38.31C35.4903 36.5992 44.0647 32.2436 47.0091 32.2151L47.0073 32.2129Z" fill="#5A96FC"/>
<path d="M56.8463 30.3116C54.7494 27.6447 55.2115 23.7829 57.8784 21.686C60.5453 19.5891 64.4071 20.0511 66.504 22.718C68.6009 25.3849 68.1388 29.2468 65.4719 31.3437C62.805 33.4406 58.9432 32.9785 56.8463 30.3116Z" fill="#5A96FC"/>
<path d="M66.1223 25.3691C66.1223 25.3691 64.4136 21.153 60.676 21.7446" stroke="white" stroke-width="0.279979" stroke-linecap="round" stroke-linejoin="round"/>
<path d="M33.6445 43.6055C33.6445 43.6055 10.748 53.0285 7.49883 55.3374L33.6445 43.6055Z" fill="#005CFB"/>
<path d="M33.6445 43.6055C33.6445 43.6055 10.748 53.0285 7.49883 55.3374" stroke="white" stroke-width="0.279979" stroke-miterlimit="10"/>
<path d="M30.1719 36.6953C30.1719 36.6953 17.8447 41.6865 14.9579 42.1007L30.1719 36.6953Z" fill="#005CFB"/>
<path d="M30.1719 36.6953C30.1719 36.6953 17.8447 41.6865 14.9579 42.1007" stroke="white" stroke-width="0.279979" stroke-miterlimit="10"/>
<path d="M4.052 60.4361C8.30256 61.9057 10.3799 55.742 5.95343 54.2932L4.052 60.4361Z" fill="#005CFB"/>
<path d="M4.052 60.4361C8.30256 61.9057 10.3799 55.742 5.95343 54.2932" stroke="white" stroke-width="0.279979" stroke-miterlimit="10"/>
<path d="M26.2148 41.8516C26.2148 41.8516 5.91073 49.888 0.407701 50.3541L26.2148 41.8516Z" fill="#005CFB"/>
<path d="M26.2148 41.8516C26.2148 41.8516 5.91073 49.888 0.407701 50.3541" stroke="white" stroke-width="0.279979" stroke-miterlimit="10"/>
<path d="M41.5703 18.8164L42.0331 14.3228" stroke="#5A96FC" stroke-width="0.642109" stroke-linecap="round" stroke-linejoin="round"/>
<path d="M8.776 38.2616L9.28125 35.7266" stroke="white" stroke-width="0.425723" stroke-linecap="round" stroke-linejoin="round"/>
<path d="M7.76953 36.75L10.3046 37.2553" stroke="white" stroke-width="0.425723" stroke-linecap="round" stroke-linejoin="round"/>
<path d="M51.5149 7.67568C52.6263 7.89718 53.7068 7.17581 53.9283 6.06443C54.1498 4.95306 53.4284 3.87257 52.317 3.65107C51.2057 3.42957 50.1251 4.15093 49.9036 5.2623C49.6821 6.37368 50.4035 7.45418 51.5149 7.67568Z" fill="white"/>
<path d="M10.7188 18.9336L15.3456 18.8079" stroke="white" stroke-width="0.823574" stroke-miterlimit="10"/>
<path d="M53.9293 48.2752L53.875 46.2773" stroke="white" stroke-width="0.329154" stroke-linecap="round" stroke-linejoin="round"/>
<path d="M52.9102 47.3125L54.908 47.2582" stroke="white" stroke-width="0.329154" stroke-linecap="round" stroke-linejoin="round"/>
<path d="M85.5175 36.97L85.625 33.7109" stroke="white" stroke-width="0.537039" stroke-linecap="round" stroke-linejoin="round"/>
<path d="M83.9492 35.2891L87.2083 35.3965" stroke="white" stroke-width="0.537039" stroke-linecap="round" stroke-linejoin="round"/>
<path d="M90.277 6.06755L90.1875 2.77344" stroke="white" stroke-width="0.542718" stroke-linecap="round" stroke-linejoin="round"/>
<path d="M88.582 4.46875L91.8761 4.37929" stroke="white" stroke-width="0.542718" stroke-linecap="round" stroke-linejoin="round"/>
<path d="M74.8944 42.8191C75.4856 42.803 75.9519 42.3107 75.9359 41.7195C75.9198 41.1282 75.4275 40.6619 74.8362 40.678C74.245 40.694 73.7786 41.1863 73.7947 41.7776C73.8108 42.3689 74.3031 42.8352 74.8944 42.8191Z" fill="white"/>
<path d="M92.1724 20.0337C92.6269 20.0214 92.9853 19.6429 92.973 19.1884C92.9606 18.7339 92.5822 18.3755 92.1277 18.3878C91.6732 18.4001 91.3147 18.7786 91.327 19.2331C91.3394 19.6876 91.7179 20.0461 92.1724 20.0337Z" fill="white" fill-opacity="0.7"/>
<path d="M32.928 12.1218L33.1445 7.48828" stroke="white" stroke-width="0.764175" stroke-linecap="round" stroke-linejoin="round"/>
<path d="M30.7148 9.69531L35.3483 9.91188" stroke="white" stroke-width="0.764175" stroke-linecap="round" stroke-linejoin="round"/>
<path d="M85.8984 10.6172L92.4797 10.927" stroke="#5A96FC" stroke-width="0.64211" stroke-linecap="round" stroke-linejoin="round"/>
</svg>
