<svg xmlns="http://www.w3.org/2000/svg" width="25" height="24"><g fill="none" fill-rule="evenodd"><path fill="#4A4A4A" fill-rule="nonzero" d="M17.294 8.174h-2.356a4.64 4.64 0 00-1.86-3.246h4.216c.255 0 .464-.21.464-.464A.466.466 0 0017.294 4H7.481c-.255 0-.464.209-.464.464s.209.464.464.464h2.81c1.91 0 3.488 1.437 3.715 3.246H7.48c-.255 0-.464.209-.464.464s.209.463.464.463h6.525a3.753 3.753 0 01-3.715 3.293H7.485a.47.47 0 00-.463.478c0 .125.055.246.143.334l7.017 6.636a.462.462 0 00.654-.018.474.474 0 00-.018-.663l-6.173-5.84h1.641a4.684 4.684 0 004.652-4.22h2.356c.255 0 .464-.208.464-.463s-.209-.464-.464-.464z"/><path d="M0 0h24v24H0z"/></g></svg>