<svg width="24" height="24" xmlns="http://www.w3.org/2000/svg"><g fill="none" fill-rule="evenodd"><path d="M0 0h24v24H0z"/><g transform="translate(3 3)"><circle fill="#ABC1F3" fill-rule="nonzero" cx="9.488" cy="9.338" r="8.152"/><circle stroke="#275EE4" stroke-width=".75" fill="#FFF" fill-rule="nonzero" cx="8.482" cy="8.625" r="8.152"/><path d="M4.59 8.467c0-1.117-.008-2.235.008-3.352 0-.188.082-.473.217-.54.135-.06.405.053.555.165a591.802 591.802 0 014.35 3.225c.473.353.473.675.015 1.027a477.005 477.005 0 01-4.402 3.263c-.143.105-.398.18-.54.12-.113-.045-.196-.315-.196-.488-.015-1.14-.007-2.28-.007-3.42z" fill="#ABC1F3" fill-rule="nonzero"/><path d="M4.59 8.467c0-1.117-.008-2.235.008-3.352 0-.188.082-.473.217-.54.135-.06.405.053.555.165a591.802 591.802 0 014.35 3.225c.473.353.473.675.015 1.027a477.005 477.005 0 01-4.402 3.263c-.143.105-.398.18-.54.12-.113-.045-.196-.315-.196-.488-.015-1.14-.007-2.28-.007-3.42z" stroke="#275EE4" stroke-width=".75"/><path d="M8.055 8.467c0-1.117-.008-2.235.008-3.352 0-.188.082-.473.217-.54.135-.067.405.045.555.157a591.802 591.802 0 014.35 3.225c.473.353.473.676.015 1.028a477.005 477.005 0 01-4.402 3.263c-.143.104-.398.18-.54.12-.113-.046-.195-.316-.195-.488-.016-1.133-.008-2.273-.008-3.413z" stroke="#275EE4" stroke-width=".804" fill="#FFF" fill-rule="nonzero"/></g></g></svg>