<svg xmlns="http://www.w3.org/2000/svg" width="24" height="24"><g fill="none" fill-rule="evenodd"><path d="M0 0h24v24H0z"/><g transform="translate(3 3)"><circle cx="9.488" cy="9.338" r="8.152" fill="#BBBABA" fill-rule="nonzero"/><circle cx="8.482" cy="8.625" r="8.152" fill="#FFF" fill-rule="nonzero" stroke="#4B4A4A" stroke-width=".75"/><path fill="#BBBABA" fill-rule="nonzero" d="M4.59 8.467c0-1.117-.008-2.235.008-3.352 0-.188.082-.473.217-.54.135-.06.405.053.555.165a581.322 581.322 0 014.35 3.225c.473.353.473.675.015 1.027a476.978 476.978 0 01-4.402 3.263c-.143.105-.398.18-.54.12-.113-.045-.196-.315-.196-.488-.015-1.14-.007-2.28-.007-3.42z"/><path stroke="#4B4A4A" stroke-linecap="round" stroke-width=".769" d="M4.59 8.467c0-1.117-.008-2.235.008-3.352 0-.188.082-.473.217-.54.135-.06.405.053.555.165a581.322 581.322 0 014.35 3.225c.473.353.473.675.015 1.027a476.978 476.978 0 01-4.402 3.263c-.143.105-.398.18-.54.12-.113-.045-.196-.315-.196-.488-.015-1.14-.007-2.28-.007-3.42z"/><path fill="#FFF" fill-rule="nonzero" stroke="#4B4A4A" stroke-width=".75" d="M8.055 8.467c0-1.117-.008-2.235.008-3.352 0-.188.082-.473.217-.54.135-.067.405.045.555.157 1.455 1.066 2.902 2.146 4.35 3.225.473.353.473.676.015 1.028a476.978 476.978 0 01-4.402 3.263c-.143.104-.398.18-.54.12-.113-.046-.195-.316-.195-.488-.016-1.133-.008-2.273-.008-3.413z"/></g></g></svg>