<svg xmlns="http://www.w3.org/2000/svg" width="24" height="24"><g fill="none" fill-rule="evenodd"><path d="M0 0h24v24H0z"/><path fill="#979797" fill-rule="nonzero" d="M20.07 19.184l-3.94-3.888a6.746 6.746 0 001.697-4.474C17.827 7.058 14.725 4 10.914 4 7.099 4 4 7.062 4 10.822c0 3.76 3.103 6.822 6.914 6.822a6.937 6.937 0 004.533-1.674l3.94 3.888c.094.092.22.142.342.142a.477.477 0 00.342-.142.475.475 0 000-.674zM4.968 10.822c0-3.235 2.668-5.864 5.943-5.864 3.279 0 5.943 2.632 5.943 5.864 0 3.232-2.664 5.868-5.943 5.868-3.275 0-5.943-2.632-5.943-5.868z"/></g></svg>