<svg width="24" height="24" xmlns="http://www.w3.org/2000/svg"><g fill="none" fill-rule="evenodd"><path d="M0 0h24v24H0z"/><g fill="#B7C4EC" fill-rule="nonzero"><path d="M12 8.175A3.83 3.83 0 008.175 12 3.83 3.83 0 0012 15.825 3.83 3.83 0 0015.825 12 3.83 3.83 0 0012 8.175zm0 6.694A2.872 2.872 0 019.131 12 2.872 2.872 0 0112 9.131 2.872 2.872 0 0114.869 12 2.872 2.872 0 0112 14.869z"/><path d="M19.624 10.178l-1.23-.267a6.693 6.693 0 00-.396-.954l.68-1.06a.478.478 0 00-.063-.596l-1.916-1.916a.478.478 0 00-.597-.064l-1.059.681a6.693 6.693 0 00-.954-.396l-.267-1.23A.478.478 0 0013.355 4h-2.71a.478.478 0 00-.467.376l-.267 1.23c-.328.107-.647.24-.954.396l-1.06-.68a.478.478 0 00-.596.063L5.385 7.301a.478.478 0 00-.064.597l.681 1.059a6.693 6.693 0 00-.396.954l-1.23.267a.478.478 0 00-.376.467v2.71c0 .224.157.419.376.467l1.23.267c.107.328.24.647.396.954l-.68 1.06a.478.478 0 00.063.596l1.916 1.916a.478.478 0 00.597.064l1.059-.681c.307.156.626.289.954.396l.267 1.23c.048.22.243.376.467.376h2.71c.224 0 .419-.157.467-.376l.267-1.23c.328-.107.647-.24.954-.396l1.06.68c.189.122.437.096.596-.063l1.916-1.916a.478.478 0 00.064-.597l-.681-1.059c.156-.307.289-.626.396-.954l1.23-.267a.478.478 0 00.376-.467v-2.71a.478.478 0 00-.376-.467zm-.58 2.791l-1.128.245a.478.478 0 00-.359.34 5.736 5.736 0 01-.53 1.277.478.478 0 00.015.493l.624.971-1.37 1.371-.972-.624a.478.478 0 00-.493-.014 5.74 5.74 0 01-1.278.53.478.478 0 00-.339.358l-.245 1.128h-1.938l-.245-1.128a.478.478 0 00-.34-.359 5.736 5.736 0 01-1.277-.53.478.478 0 00-.493.015l-.971.624-1.371-1.37.624-.972a.478.478 0 00.015-.493 5.743 5.743 0 01-.53-1.278.478.478 0 00-.36-.339l-1.127-.245v-1.938l1.128-.245a.478.478 0 00.359-.34c.124-.444.302-.873.53-1.277a.478.478 0 00-.015-.493l-.624-.971 1.37-1.371.972.624c.15.096.339.102.493.014a5.74 5.74 0 011.278-.53.478.478 0 00.339-.358l.245-1.128h1.938l.245 1.128a.478.478 0 00.34.359c.444.124.873.302 1.277.53a.478.478 0 00.493-.015l.971-.624 1.371 1.37-.624.972a.478.478 0 00-.015.493c.228.404.406.833.53 1.278.048.17.186.3.36.339l1.127.245v1.938z"/></g></g></svg>