<svg width="24" height="24" xmlns="http://www.w3.org/2000/svg"><g fill="none" fill-rule="evenodd"><path d="M0 0h24v24H0z"/><g fill="#4A4A4A" fill-rule="nonzero"><path d="M11.805 6.529L9.47 4.195a.667.667 0 00-.942 0L6.195 6.53a.667.667 0 10.943.942l1.195-1.195v13.057a.667.667 0 001.334 0V6.276l1.195 1.195a.663.663 0 00.943 0 .667.667 0 000-.942zM17.805 16.529a.667.667 0 00-.943 0l-1.195 1.195V4.667a.667.667 0 00-1.334 0v13.057l-1.195-1.195a.667.667 0 10-.943.942l2.334 2.334a.664.664 0 00.942 0l2.334-2.334a.667.667 0 000-.942z"/></g></g></svg>