<svg width="175" height="77" viewBox="0 0 175 77" fill="none" xmlns="http://www.w3.org/2000/svg">
<path d="M170.271 62.6139C169.501 62.671 168.924 63.3412 168.981 64.1107C169.038 64.8802 169.708 65.4576 170.478 65.4004C171.247 65.3432 171.825 64.6731 171.768 63.9036C171.71 63.1341 171.04 62.5567 170.271 62.6139Z" fill="white" fill-opacity="0.3"/>
<path d="M29.0421 57.4551C28.343 57.507 27.8184 58.1159 27.8704 58.815C27.9224 59.514 28.5312 60.0386 29.2303 59.9867C29.9294 59.9347 30.454 59.3259 30.402 58.6268C30.35 57.9277 29.7412 57.4031 29.0421 57.4551Z" fill="white"/>
<path d="M171.632 24.5008L171.559 27.332" stroke="white" stroke-width="0.466591" stroke-linecap="round" stroke-linejoin="round"/>
<path d="M173.008 25.9512L170.177 25.8778" stroke="white" stroke-width="0.466591" stroke-linecap="round" stroke-linejoin="round"/>
<path d="M42.2109 57.1494L36.6883 57.0083" stroke="#5A96FC" stroke-width="0.761249" stroke-linecap="round" stroke-linejoin="round"/>
<path d="M74.1078 18.8621C73.012 18.9436 72.1898 19.8979 72.2713 20.9936C72.3527 22.0893 73.307 22.9115 74.4027 22.8301C75.4984 22.7486 76.3207 21.7944 76.2392 20.6986C76.1578 19.6029 75.2035 18.7807 74.1078 18.8621Z" fill="white" fill-opacity="0.3"/>
<path d="M157.227 23.5176L151.704 23.3765" stroke="white" stroke-width="0.976383" stroke-miterlimit="10"/>
<path d="M158.414 61.1861C154.289 61.4927 151.194 65.0848 151.5 69.2094C151.807 73.334 155.399 76.4291 159.524 76.1225C163.648 75.8159 166.744 72.2238 166.437 68.0992C166.13 63.9745 162.538 60.8795 158.414 61.1861Z" fill="white" fill-opacity="0.3"/>
<path d="M3.41258 51.8602L3.48047 56.6826" stroke="white" stroke-width="0.91598" stroke-linecap="round" stroke-linejoin="round"/>
<path d="M5.85156 54.2373L1.02912 54.3052" stroke="white" stroke-width="0.91598" stroke-linecap="round" stroke-linejoin="round"/>
</svg>
