<svg width="24" height="24" xmlns="http://www.w3.org/2000/svg"><g fill="none" fill-rule="evenodd"><path d="M0 0h24v24H0z"/><path d="M14.44 4c.089 0 .175.036.238.099l3.376 3.376a.337.337 0 01.098.238v11.14c0 .745-.606 1.35-1.35 1.35H7.35c-.744 0-1.35-.605-1.35-1.35V5.35C6 4.606 6.606 4 7.35 4h7.09zm-.338.675H7.35a.676.676 0 00-.675.675v13.503c0 .372.303.675.675.675h9.452a.676.676 0 00.675-.675V8.05h-2.025c-.744 0-1.35-.606-1.35-1.35V4.675zm-1.688 12.828a.337.337 0 110 .675H8.363a.337.337 0 110-.675h4.05zm3.375-2.026a.337.337 0 110 .675H8.363a.337.337 0 110-.675h7.426zm0-2.025a.337.337 0 110 .675H8.363a.337.337 0 110-.675h7.426zm0-2.026a.337.337 0 110 .676H8.363a.337.337 0 110-.676h7.426zm0-2.025a.337.337 0 110 .675h-4.05a.337.337 0 110-.675h4.05zm-1.012-4.249v1.549c0 .372.302.675.675.675H17l-2.223-2.224z" fill="#2E70E6" fill-rule="nonzero"/></g></svg>