<svg xmlns="http://www.w3.org/2000/svg" width="24" height="24"><g fill="none" fill-rule="evenodd"><path d="M0 0h24v24H0z"/><g fill-rule="nonzero" transform="translate(3 3)"><path fill="#ABC1F3" d="M15.262 12.818c-.712-.428-1.53-.705-2.4-.848-1.845-.308-3.735-.075-5.587.015-.735.03-1.47.053-2.183.225-2.114.502-3.607 2.7-3.727 4.807-.008.12.097.226.218.233 1.567.038 3.127.045 4.695.06 2.107.015 4.215.023 6.322.023.893 0 1.785-.008 2.678-.008.464 0 .93-.023 1.387-.008 1.117.03 1.133-.217 1.058-.51-.195-.75-.375-1.334-.72-2.032-.398-.848-.945-1.485-1.74-1.957z"/><path fill="#FFF" stroke="#275EE4" stroke-width=".75" d="M14.137 11.835a6.572 6.572 0 00-2.242-.78c-1.68-.277-3.39-.09-5.077-.06-1.395.023-2.835 0-4.058.788-1.507.967-2.445 2.505-2.542 4.29a.225.225 0 00.217.232H15.21c.397 0 .825.053 1.223 0 .285-.038.3.015.217-.36-.127-.57-.285-1.14-.502-1.688-.405-1.027-1.05-1.874-2.01-2.422z"/><path fill="#FFF" stroke="#275EE4" stroke-linecap="round" stroke-width=".75" d="M4.973 11.13c.862.667 3.285 2.52 3.57 2.452.142-.037 3.045-2.287 3.172-2.452"/><circle cx="8.7" cy="5.992" r="5.415" fill="#FFF" stroke="#275EE4" stroke-width=".75"/></g><g transform="translate(12.75 12.75)"><circle cx="4.072" cy="3.893" r="3.862" fill="#ABC1F3" fill-rule="nonzero"/><circle cx="4.072" cy="3.893" r="3.862" stroke="#275EE4" stroke-width=".75"/><path stroke="#275EE4" stroke-linecap="round" stroke-width=".75" d="M3.712 1.972v2.543l1.365.623"/></g></g></svg>