<svg width="24" height="24" xmlns="http://www.w3.org/2000/svg"><g fill-rule="nonzero" fill="none"><path d="M13.573.337c-1.19.001-1.676.96-1.712 1.002-.138.158-.321.19-.507-.003a1.963 1.963 0 00-3.67.97c.001 2.197 1.938 3.931 3.841 4.83a.21.21 0 00.18-.001c1.92-.91 3.835-2.65 3.832-4.837A1.966 1.966 0 0013.573.337z" fill="#F2776B"/><path d="M8.62 2.306c0-.523.204-1.017.575-1.388.267-.267.585-.438.919-.52a1.963 1.963 0 00-2.43 1.908c.001 2.197 1.938 3.931 3.841 4.83a.21.21 0 00.18-.001c.088-.042.217-.106.375-.192-1.77-.94-3.457-2.587-3.46-4.637z" fill="#F55445"/><path d="M14.182 13.443c.1.198.288.32.492.32H20.4v9.114c0 .418-.302.757-.676.757h-8.136V8.677l2.594 4.766z" fill="#FDCA7B"/><path fill="#EDB45C" d="M11.588 8.678v14.956h.905V10.341z"/><path d="M9.039 13.443a.558.558 0 01-.492.32H2.82v9.114c0 .418.303.757.676.757h8.137V8.677l-2.594 4.766z" fill="#FDCA7B"/><path d="M3.726 22.877v-9.114H2.82v9.114c0 .418.303.757.676.757h.906c-.373 0-.676-.339-.676-.757z" fill="#EDB45C"/><path d="M22.527 13.915h-7.944a.558.558 0 01-.492-.32l-2.503-4.918h8.368c.274 0 .528.166.664.433l2.18 4.28c.119.234-.032.525-.273.525z" fill="#FDCA7B"/><path d="M15.116 13.596l-2.504-4.918h-1.024l2.504 4.918c.1.197.288.32.491.32h1.025a.558.558 0 01-.492-.32z" fill="#EDB45C"/><path d="M.694 13.915h7.943a.558.558 0 00.492-.32l2.504-4.918H3.265a.755.755 0 00-.665.433L.421 13.39c-.12.234.032.525.273.525z" fill="#FDCA7B"/><path d="M1.327 13.39l2.179-4.28a.755.755 0 01.665-.432h-.906a.755.755 0 00-.665.432L.421 13.39c-.12.234.032.525.273.525H1.6c-.241 0-.392-.29-.273-.525z" fill="#EDB45C"/><path d="M23.128 13.245l-2.175-4.28a1.104 1.104 0 00-.977-.625H3.274c-.407 0-.781.24-.977.625l-2.175 4.28a.739.739 0 00.028.717c.123.2.332.32.558.32h1.77v8.61c0 .61.46 1.108 1.027 1.108h16.24c.566 0 1.026-.497 1.026-1.108v-3.697a.352.352 0 10-.703 0v3.697c0 .22-.148.405-.323.405h-7.768V10.16l1.833 3.61c.16.315.469.511.804.511h5.454v3.274a.352.352 0 10.703 0V14.28h1.771c.226 0 .435-.119.558-.319a.74.74 0 00.028-.717zm-22.379.319l2.175-4.28c.075-.148.21-.24.35-.24h7.778l-2.24 4.407c-.04.078-.107.127-.176.127H.746c0-.004 0-.01.003-.014zm2.433 9.328v-8.61h5.454a.908.908 0 00.804-.513l1.833-3.609v13.137H3.505c-.175 0-.323-.186-.323-.405zm11.432-9.314c-.069 0-.137-.049-.177-.127l-2.239-4.408h7.778c.14 0 .275.092.35.24l2.175 4.28.003.015h-7.89zM10.626 7.063a.35.35 0 00.482-.124.352.352 0 00-.125-.482c-.881-.52-2.931-1.963-2.933-4.136-.001-.969.852-1.73 1.826-1.599.87.117 1.172.802 1.239.871.31.324.734.326 1.026-.01.078-.09.455-.879 1.447-.88.888 0 1.612.722 1.613 1.61.002 2.07-1.84 3.484-2.937 4.143a.352.352 0 10.362.603c2.116-1.27 3.28-2.956 3.278-4.747C15.9.05 12.927-.914 11.624 1.093a2.314 2.314 0 00-4.278 1.228c.002 1.786 1.198 3.514 3.28 4.742z" fill="#000"/></g></svg>